<svg width="51" height="51" viewBox="0 0 51 51" fill="none" xmlns="http://www.w3.org/2000/svg">
<g clip-path="url(#clip0_9557_6617)">
<path d="M41.6094 7.92187C41.6094 8.73059 40.9536 9.38672 40.1445 9.38672C39.3354 9.38672 38.6797 8.73059 38.6797 7.92187C38.6797 7.11278 39.3354 6.45703 40.1445 6.45703C40.9536 6.45703 41.6094 7.11278 41.6094 7.92187Z" fill="#3762C8"/>
<path d="M35.75 7.92187C35.75 8.73059 35.0943 9.38672 34.2852 9.38672C33.4764 9.38672 32.8203 8.73059 32.8203 7.92187C32.8203 7.11278 33.4764 6.45703 34.2852 6.45703C35.0943 6.45703 35.75 7.11278 35.75 7.92187Z" fill="#3762C8"/>
<path d="M29.8902 7.92187C29.8902 8.73059 29.2345 9.38672 28.4258 9.38672C27.6167 9.38672 26.9609 8.73059 26.9609 7.92187C26.9609 7.11278 27.6167 6.45703 28.4258 6.45703C29.2345 6.45703 29.8902 7.11278 29.8902 7.92187Z" fill="#3762C8"/>
<path d="M49.2117 42.9972L47.6126 41.3981L47.5695 5.87071C47.5695 2.90936 45.1601 0.5 42.1988 0.5H5.87071C2.90936 0.5 0.5 2.90936 0.5 5.87071V42.1988C0.5 45.1601 2.90936 47.5695 5.87071 47.5695H41.3546L42.9972 49.2117C44.7142 50.9291 47.494 50.9295 49.2117 49.2117C50.9291 47.4947 50.9295 44.7146 49.2117 42.9972ZM5.87071 3.42969H42.1988C43.5446 3.42969 44.6398 4.52488 44.6398 5.87262L44.6475 12.316H3.42969V5.87071C3.42969 4.52488 4.52488 3.42969 5.87071 3.42969ZM5.87071 44.6398C4.52488 44.6398 3.42969 43.5446 3.42969 42.1988V15.2457H44.6513L44.6795 38.465L41.0864 34.8719C43.4699 28.2076 38.4978 21.1749 31.4284 21.1749C25.7746 21.1749 21.1745 25.7746 21.1745 31.4284C21.1745 38.5077 28.2149 43.4672 34.8719 41.0864L38.4249 44.6398H5.87071ZM31.4284 38.7526C27.3902 38.7526 24.1042 35.467 24.1042 31.4284C24.1042 27.3898 27.3898 24.1042 31.4284 24.1042C35.467 24.1042 38.7526 27.3898 38.7526 31.4284C38.7526 35.467 35.467 38.7526 31.4284 38.7526ZM47.14 47.1404C46.5678 47.7129 45.6412 47.7129 45.0686 47.1404L37.5659 39.6372C38.3509 39.049 39.049 38.3509 39.6372 37.5659L47.1404 45.0686C47.7129 45.6412 47.7129 46.5678 47.14 47.1404Z" fill="#3762C8"/>
<path d="M7.91797 21.105H22.566C23.3751 21.105 24.0309 20.4492 24.0309 19.6401C24.0309 18.831 23.3751 18.1753 22.566 18.1753H7.91797C7.10887 18.1753 6.45312 18.831 6.45312 19.6401C6.45312 20.4492 7.10887 21.105 7.91797 21.105Z" fill="#3762C8"/>
<path d="M16.7066 24.0347H7.91797C7.10887 24.0347 6.45312 24.6904 6.45312 25.4995C6.45312 26.3082 7.10887 26.9644 7.91797 26.9644H16.7066C17.5157 26.9644 18.1715 26.3082 18.1715 25.4995C18.1715 24.6904 17.5157 24.0347 16.7066 24.0347Z" fill="#3762C8"/>
<path d="M16.7066 29.894H7.91797C7.10887 29.894 6.45312 30.5498 6.45312 31.3585C6.45312 32.1676 7.10887 32.8233 7.91797 32.8233H16.7066C17.5157 32.8233 18.1715 32.1676 18.1715 31.3585C18.1715 30.5498 17.5157 29.894 16.7066 29.894Z" fill="#3762C8"/>
<path d="M16.7066 35.7529H7.91797C7.10887 35.7529 6.45312 36.4091 6.45312 37.2178C6.45312 38.0269 7.10887 38.6826 7.91797 38.6826H16.7066C17.5157 38.6826 18.1715 38.0269 18.1715 37.2178C18.1715 36.4091 17.5157 35.7529 16.7066 35.7529Z" fill="#3762C8"/>
</g>
<defs>
<clipPath id="clip0_9557_6617">
<rect width="50" height="50" fill="white" transform="translate(0.5 0.5)"/>
</clipPath>
</defs>
</svg>
