<svg width="50" height="51" viewBox="0 0 50 51" fill="none" xmlns="http://www.w3.org/2000/svg">
<g clip-path="url(#clip0_9557_6516)">
<path d="M48.5342 47.5704H46.9717V22.6686C46.9717 22.038 46.5683 21.4784 45.97 21.2789L29.3939 15.7536V10.7548C29.3939 10.1442 29.0152 9.5976 28.4435 9.38324L5.00654 0.594376C4.0499 0.235685 3.02734 0.943985 3.02734 1.96596V47.5704H1.46484C0.655859 47.5704 0 48.2263 0 49.0353C0 49.8443 0.655859 50.5001 1.46484 50.5001C1.79385 50.5001 47.8994 50.5001 48.5342 50.5001C49.3432 50.5001 49.999 49.8443 49.999 49.0353C49.999 48.2263 49.3432 47.5704 48.5342 47.5704ZM14.7458 47.5704H11.8162V41.7111H14.7458V47.5704ZM20.6051 47.5704H17.6755V41.7111H20.6051V47.5704ZM26.4644 16.8093V47.5704H23.5348V40.2463C23.5348 39.4373 22.8789 38.7815 22.0699 38.7815H10.3514C9.54238 38.7815 8.88652 39.4373 8.88652 40.2463V47.5704H5.95693V4.07963L26.4644 11.7699V16.8093ZM38.1828 47.5704H35.2532V41.7111H38.1828V47.5704ZM44.0421 47.5704H41.1125V40.2463C41.1125 39.4373 40.4566 38.7815 39.6477 38.7815H33.7884C32.9794 38.7815 32.3235 39.4373 32.3235 40.2463V47.5704H29.3939V18.8416L44.0421 23.7244V47.5704Z" fill="#3762C8"/>
<path d="M13.2851 32.9224H10.3555C9.54648 32.9224 8.89062 33.5782 8.89062 34.3872C8.89062 35.1962 9.54639 35.8521 10.3555 35.8521H13.2851C14.094 35.8521 14.7499 35.1962 14.7499 34.3872C14.7499 33.5782 14.094 32.9224 13.2851 32.9224Z" fill="#3762C8"/>
<path d="M22.0741 32.9224H19.1445C18.3355 32.9224 17.6797 33.5782 17.6797 34.3872C17.6797 35.1962 18.3354 35.8521 19.1445 35.8521H22.0741C22.8831 35.8521 23.539 35.1962 23.539 34.3872C23.539 33.5782 22.8831 32.9224 22.0741 32.9224Z" fill="#3762C8"/>
<path d="M13.2851 27.063H10.3555C9.54648 27.063 8.89062 27.7188 8.89062 28.5278C8.89062 29.3368 9.54639 29.9927 10.3555 29.9927H13.2851C14.094 29.9927 14.7499 29.3368 14.7499 28.5278C14.7499 27.7188 14.094 27.063 13.2851 27.063Z" fill="#3762C8"/>
<path d="M22.0741 27.063H19.1445C18.3355 27.063 17.6797 27.7188 17.6797 28.5278C17.6797 29.3368 18.3354 29.9927 19.1445 29.9927H22.0741C22.8831 29.9927 23.539 29.3368 23.539 28.5278C23.539 27.7188 22.8831 27.063 22.0741 27.063Z" fill="#3762C8"/>
<path d="M39.6444 32.9224H33.7852C32.9762 32.9224 32.3203 33.5782 32.3203 34.3872C32.3203 35.1962 32.9761 35.8521 33.7852 35.8521H39.6444C40.4534 35.8521 41.1093 35.1962 41.1093 34.3872C41.1093 33.5782 40.4534 32.9224 39.6444 32.9224Z" fill="#3762C8"/>
<path d="M39.6444 27.063H33.7852C32.9762 27.063 32.3203 27.7188 32.3203 28.5278C32.3203 29.3368 32.9761 29.9927 33.7852 29.9927H39.6444C40.4534 29.9927 41.1093 29.3368 41.1093 28.5278C41.1093 27.7188 40.4534 27.063 39.6444 27.063Z" fill="#3762C8"/>
<path d="M13.2851 21.2036H10.3555C9.54648 21.2036 8.89062 21.8595 8.89062 22.6685C8.89062 23.4774 9.54639 24.1333 10.3555 24.1333H13.2851C14.094 24.1333 14.7499 23.4774 14.7499 22.6685C14.7498 21.8595 14.094 21.2036 13.2851 21.2036Z" fill="#3762C8"/>
<path d="M22.0741 21.2036H19.1445C18.3355 21.2036 17.6797 21.8595 17.6797 22.6685C17.6797 23.4774 18.3354 24.1333 19.1445 24.1333H22.0741C22.8831 24.1333 23.539 23.4774 23.539 22.6685C23.539 21.8595 22.8831 21.2036 22.0741 21.2036Z" fill="#3762C8"/>
<path d="M13.2851 15.3442H10.3555C9.54648 15.3442 8.89062 16.0001 8.89062 16.8091C8.89062 17.6181 9.54639 18.2739 10.3555 18.2739H13.2851C14.094 18.2739 14.7499 17.6181 14.7499 16.8091C14.7498 16.0001 14.094 15.3442 13.2851 15.3442Z" fill="#3762C8"/>
<path d="M22.0741 15.3442H19.1445C18.3355 15.3442 17.6797 16.0001 17.6797 16.8091C17.6797 17.6181 18.3354 18.2739 19.1445 18.2739H22.0741C22.8831 18.2739 23.539 17.6181 23.539 16.8091C23.539 16.0001 22.8831 15.3442 22.0741 15.3442Z" fill="#3762C8"/>
</g>
<defs>
<clipPath id="clip0_9557_6516">
<rect width="50" height="50" fill="white" transform="translate(0 0.5)"/>
</clipPath>
</defs>
</svg>
