<svg width="24" height="25" viewBox="0 0 24 25" fill="none" xmlns="http://www.w3.org/2000/svg">
<path d="M18.0611 9.6099L14.4751 6.0239C13.8083 5.38753 12.9219 5.03247 12.0001 5.03247C11.0783 5.03247 10.192 5.38753 9.52513 6.0239L5.93913 9.6099C5.65786 9.8913 5.49991 10.2729 5.5 10.6708C5.50009 11.0686 5.65823 11.4501 5.93963 11.7314C6.22102 12.0127 6.60262 12.1706 7.00048 12.1705C7.39834 12.1704 7.77986 12.0123 8.06113 11.7309L10.5001 9.2919V19.0849C10.5001 19.4827 10.6582 19.8643 10.9395 20.1456C11.2208 20.4269 11.6023 20.5849 12.0001 20.5849C12.398 20.5849 12.7795 20.4269 13.0608 20.1456C13.3421 19.8643 13.5001 19.4827 13.5001 19.0849V9.2919L15.9391 11.7309C16.0784 11.8702 16.2437 11.9808 16.4257 12.0562C16.6077 12.1316 16.8028 12.1705 16.9998 12.1705C17.1968 12.1706 17.3919 12.1318 17.5739 12.0565C17.7559 11.9811 17.9213 11.8707 18.0606 11.7314C18.2 11.5921 18.3105 11.4268 18.3859 11.2448C18.4614 11.0628 18.5002 10.8678 18.5003 10.6708C18.5003 10.4738 18.4615 10.2787 18.3862 10.0967C18.3109 9.91463 18.2004 9.74923 18.0611 9.6099Z" fill="#B3BACC"/>
</svg>
