<svg width="18" height="19" viewBox="0 0 18 19" fill="none" xmlns="http://www.w3.org/2000/svg">
<g clip-path="url(#clip0_9621_669)">
<path d="M14.25 1.68457H13.5V0.93457C13.5 0.52057 13.1648 0.18457 12.75 0.18457C12.3352 0.18457 12 0.52057 12 0.93457V1.68457H6V0.93457C6 0.52057 5.66475 0.18457 5.25 0.18457C4.83525 0.18457 4.5 0.52057 4.5 0.93457V1.68457H3.75C1.68225 1.68457 0 3.36682 0 5.43457V14.4346C0 16.5023 1.68225 18.1846 3.75 18.1846H14.25C16.3177 18.1846 18 16.5023 18 14.4346V5.43457C18 3.36682 16.3177 1.68457 14.25 1.68457ZM3.75 3.18457H14.25C15.4905 3.18457 16.5 4.19407 16.5 5.43457V6.18457H1.5V5.43457C1.5 4.19407 2.5095 3.18457 3.75 3.18457ZM14.25 16.6846H3.75C2.5095 16.6846 1.5 15.6751 1.5 14.4346V7.68457H16.5V14.4346C16.5 15.6751 15.4905 16.6846 14.25 16.6846ZM14.25 10.6846C14.25 11.0986 13.9148 11.4346 13.5 11.4346H4.5C4.08525 11.4346 3.75 11.0986 3.75 10.6846C3.75 10.2706 4.08525 9.93457 4.5 9.93457H13.5C13.9148 9.93457 14.25 10.2706 14.25 10.6846ZM9 13.6846C9 14.0986 8.66475 14.4346 8.25 14.4346H4.5C4.08525 14.4346 3.75 14.0986 3.75 13.6846C3.75 13.2706 4.08525 12.9346 4.5 12.9346H8.25C8.66475 12.9346 9 13.2706 9 13.6846Z" fill="#3762C8"/>
</g>
<defs>
<clipPath id="clip0_9621_669">
<rect width="18" height="18" fill="white" transform="translate(0 0.18457)"/>
</clipPath>
</defs>
</svg>
