<svg width="18" height="19" viewBox="0 0 18 19" fill="none" xmlns="http://www.w3.org/2000/svg">
<g clip-path="url(#clip0_9626_1635)">
<path d="M12.75 17.041H14.25C14.8467 17.041 15.419 16.804 15.841 16.382C16.2629 15.96 16.5 15.3878 16.5 14.791V4.29102C16.5 3.69428 16.2629 3.12198 15.841 2.70003C15.419 2.27807 14.8467 2.04102 14.25 2.04102H12.75C12.5511 2.04102 12.3603 1.962 12.2197 1.82135C12.079 1.68069 12 1.48993 12 1.29102C12 1.0921 12.079 0.901338 12.2197 0.760686C12.3603 0.620033 12.5511 0.541016 12.75 0.541016H14.25C15.2442 0.542207 16.1973 0.937677 16.9003 1.64068C17.6033 2.34368 17.9988 3.29682 18 4.29102V14.791C17.9988 15.7852 17.6033 16.7383 16.9003 17.4414C16.1973 18.1444 15.2442 18.5398 14.25 18.541H12.75C12.5511 18.541 12.3603 18.462 12.2197 18.3213C12.079 18.1807 12 17.9899 12 17.791C12 17.5921 12.079 17.4013 12.2197 17.2607C12.3603 17.12 12.5511 17.041 12.75 17.041Z" fill="#2AA81A"/>
<path d="M0.752639 8.79095L12.5854 8.81495C12.5196 8.69277 12.4373 8.58022 12.3409 8.48045L9.43164 5.5712C9.36001 5.50202 9.30287 5.41926 9.26356 5.32776C9.22426 5.23625 9.20357 5.13784 9.2027 5.03826C9.20184 4.93867 9.22081 4.83991 9.25852 4.74774C9.29623 4.65557 9.35192 4.57183 9.42234 4.50141C9.49276 4.43099 9.5765 4.3753 9.66867 4.33759C9.76085 4.29988 9.85961 4.2809 9.95919 4.28177C10.0588 4.28263 10.1572 4.30332 10.2487 4.34263C10.3402 4.38194 10.423 4.43907 10.4921 4.5107L13.4029 7.41995C13.9653 7.98254 14.2812 8.74546 14.2812 9.54095C14.2812 10.3364 13.9653 11.0994 13.4029 11.662L10.4936 14.5712C10.4245 14.6428 10.3417 14.7 10.2502 14.7393C10.1587 14.7786 10.0603 14.7993 9.96069 14.8001C9.86111 14.801 9.76235 14.782 9.67017 14.7443C9.578 14.7066 9.49426 14.6509 9.42384 14.5805C9.35342 14.5101 9.29773 14.4263 9.26002 14.3342C9.22231 14.242 9.20334 14.1432 9.2042 14.0437C9.20507 13.9441 9.22576 13.8457 9.26506 13.7542C9.30437 13.6626 9.36151 13.5799 9.43314 13.5107L12.3424 10.6015C12.4263 10.515 12.4996 10.4188 12.5606 10.315L0.752639 10.291C0.553726 10.291 0.36296 10.2119 0.222308 10.0713C0.0816555 9.93063 0.00263882 9.73987 0.00263882 9.54095C0.00263882 9.34204 0.0816555 9.15128 0.222308 9.01062C0.36296 8.86997 0.553726 8.79095 0.752639 8.79095Z" fill="#2AA81A"/>
</g>
<defs>
<clipPath id="clip0_9626_1635">
<rect width="18" height="18" fill="white" transform="matrix(-1 0 0 1 18 0.541016)"/>
</clipPath>
</defs>
</svg>
