<svg width="19" height="19" viewBox="0 0 19 19" fill="none" xmlns="http://www.w3.org/2000/svg">
<g clip-path="url(#clip0_9626_1659)">
<path d="M5.27344 17.041H3.77344C3.1767 17.041 2.6044 16.804 2.18245 16.382C1.76049 15.96 1.52344 15.3878 1.52344 14.791V4.29102C1.52344 3.69428 1.76049 3.12198 2.18245 2.70003C2.6044 2.27807 3.1767 2.04102 3.77344 2.04102H5.27344C5.47235 2.04102 5.66312 1.962 5.80377 1.82135C5.94442 1.68069 6.02344 1.48993 6.02344 1.29102C6.02344 1.0921 5.94442 0.901338 5.80377 0.760686C5.66312 0.620033 5.47235 0.541016 5.27344 0.541016H3.77344C2.77924 0.542207 1.82611 0.937677 1.1231 1.64068C0.420099 2.34368 0.0246284 3.29682 0.0234375 4.29102L0.0234375 14.791C0.0246284 15.7852 0.420099 16.7383 1.1231 17.4414C1.82611 18.1444 2.77924 18.5398 3.77344 18.541H5.27344C5.47235 18.541 5.66312 18.462 5.80377 18.3213C5.94442 18.1807 6.02344 17.9899 6.02344 17.791C6.02344 17.5921 5.94442 17.4013 5.80377 17.2607C5.66312 17.12 5.47235 17.041 5.27344 17.041Z" fill="#F36F56"/>
<path d="M3.77608 8.79095L15.6088 8.81495C15.543 8.69277 15.4608 8.58022 15.3643 8.48045L12.4551 5.5712C12.3834 5.50202 12.3263 5.41926 12.287 5.32776C12.2477 5.23625 12.227 5.13784 12.2261 5.03826C12.2253 4.93867 12.2443 4.83991 12.282 4.74774C12.3197 4.65557 12.3754 4.57183 12.4458 4.50141C12.5162 4.43099 12.5999 4.3753 12.6921 4.33759C12.7843 4.29988 12.883 4.2809 12.9826 4.28177C13.0822 4.28263 13.1806 4.30332 13.2721 4.34263C13.3636 4.38194 13.4464 4.43907 13.5156 4.5107L16.4263 7.41995C16.9887 7.98254 17.3047 8.74546 17.3047 9.54095C17.3047 10.3364 16.9887 11.0994 16.4263 11.662L13.5171 14.5712C13.4479 14.6428 13.3651 14.7 13.2736 14.7393C13.1821 14.7786 13.0837 14.7993 12.9841 14.8001C12.8845 14.801 12.7858 14.782 12.6936 14.7443C12.6014 14.7066 12.5177 14.6509 12.4473 14.5805C12.3769 14.5101 12.3212 14.4263 12.2835 14.3342C12.2458 14.242 12.2268 14.1432 12.2276 14.0437C12.2285 13.9441 12.2492 13.8457 12.2885 13.7542C12.3278 13.6626 12.3849 13.5799 12.4566 13.5107L15.3658 10.6015C15.4498 10.515 15.523 10.4188 15.5841 10.315L3.77608 10.291C3.57716 10.291 3.3864 10.2119 3.24575 10.0713C3.10509 9.93063 3.02608 9.73987 3.02608 9.54095C3.02608 9.34204 3.10509 9.15128 3.24575 9.01062C3.3864 8.86997 3.57716 8.79095 3.77608 8.79095Z" fill="#F36F56"/>
</g>
<defs>
<clipPath id="clip0_9626_1659">
<rect width="18" height="18" fill="white" transform="matrix(-1 0 0 1 18.0234 0.541016)"/>
</clipPath>
</defs>
</svg>
