<svg width="18" height="19" viewBox="0 0 18 19" fill="none" xmlns="http://www.w3.org/2000/svg">
<g clip-path="url(#clip0_9626_1644)">
<path d="M12.75 17.29H14.25C14.8467 17.29 15.419 17.053 15.841 16.631C16.2629 16.2091 16.5 15.6368 16.5 15.04V4.54004C16.5 3.9433 16.2629 3.37101 15.841 2.94905C15.419 2.52709 14.8467 2.29004 14.25 2.29004H12.75C12.5511 2.29004 12.3603 2.21102 12.2197 2.07037C12.079 1.92972 12 1.73895 12 1.54004C12 1.34113 12.079 1.15036 12.2197 1.00971C12.3603 0.869057 12.5511 0.790039 12.75 0.790039H14.25C15.2442 0.79123 16.1973 1.1867 16.9003 1.8897C17.6033 2.59271 17.9988 3.54584 18 4.54004V15.04C17.9988 16.0342 17.6033 16.9874 16.9003 17.6904C16.1973 18.3934 15.2442 18.7888 14.25 18.79H12.75C12.5511 18.79 12.3603 18.711 12.2197 18.5704C12.079 18.4297 12 18.239 12 18.04C12 17.8411 12.079 17.6504 12.2197 17.5097C12.3603 17.3691 12.5511 17.29 12.75 17.29Z" fill="white"/>
<path d="M0.752639 9.03998L12.5854 9.06398C12.5196 8.9418 12.4373 8.82924 12.3409 8.72948L9.43164 5.82023C9.36001 5.75104 9.30287 5.66828 9.26356 5.57678C9.22426 5.48528 9.20357 5.38686 9.2027 5.28728C9.20184 5.18769 9.22081 5.08893 9.25852 4.99676C9.29623 4.90459 9.35192 4.82085 9.42234 4.75043C9.49276 4.68001 9.5765 4.62432 9.66867 4.58661C9.76085 4.5489 9.85961 4.52992 9.95919 4.53079C10.0588 4.53166 10.1572 4.55235 10.2487 4.59165C10.3402 4.63096 10.423 4.6881 10.4921 4.75973L13.4029 7.66898C13.9653 8.23156 14.2812 8.99449 14.2812 9.78998C14.2812 10.5855 13.9653 11.3484 13.4029 11.911L10.4936 14.8202C10.4245 14.8919 10.3417 14.949 10.2502 14.9883C10.1587 15.0276 10.0603 15.0483 9.96069 15.0492C9.86111 15.05 9.76235 15.0311 9.67017 14.9933C9.578 14.9556 9.49426 14.8999 9.42384 14.8295C9.35342 14.7591 9.29773 14.6754 9.26002 14.5832C9.22231 14.491 9.20334 14.3923 9.2042 14.2927C9.20507 14.1931 9.22576 14.0947 9.26506 14.0032C9.30437 13.9117 9.36151 13.8289 9.43314 13.7597L12.3424 10.8505C12.4263 10.764 12.4996 10.6679 12.5606 10.564L0.752639 10.54C0.553726 10.54 0.36296 10.461 0.222308 10.3203C0.0816555 10.1797 0.00263882 9.98889 0.00263882 9.78998C0.00263882 9.59107 0.0816555 9.4003 0.222308 9.25965C0.36296 9.119 0.553726 9.03998 0.752639 9.03998Z" fill="white"/>
</g>
<defs>
<clipPath id="clip0_9626_1644">
<rect width="18" height="18" fill="white" transform="matrix(-1 0 0 1 18 0.790039)"/>
</clipPath>
</defs>
</svg>
