<svg width="24" height="24" viewBox="0 0 24 24" fill="none" xmlns="http://www.w3.org/2000/svg">
<g clip-path="url(#clip0_9594_1409)">
<path d="M18.813 10.009C19.122 10.009 19.414 9.86603 19.603 9.62203C19.792 9.37803 19.858 9.06003 19.782 8.76103C19.471 7.54403 18.837 6.43203 17.949 5.54403L14.464 2.05903C13.142 0.737033 11.384 0.0090332 9.514 0.0090332H4.999C2.243 0.0090332 0 2.25203 0 5.00903V19.009C0 21.766 2.243 24.009 5 24.009H8C8.552 24.009 9 23.561 9 23.009C9 22.457 8.552 22.009 8 22.009H5C3.346 22.009 2 20.663 2 19.009V5.00903C2 3.35503 3.346 2.00903 5 2.00903H9.515C9.678 2.00903 9.84 2.01703 10 2.03203V7.00903C10 8.66303 11.346 10.009 13 10.009H18.813ZM12 7.00903V2.66803C12.379 2.88603 12.732 3.15603 13.05 3.47403L16.535 6.95903C16.849 7.27303 17.118 7.62703 17.338 8.00903H13C12.449 8.00903 12 7.56003 12 7.00903ZM23.122 11.888C21.988 10.754 20.012 10.754 18.879 11.888L12.172 18.595C11.417 19.35 11 20.355 11 21.424V23.01C11 23.562 11.448 24.01 12 24.01H13.586C14.655 24.01 15.659 23.593 16.414 22.838L23.121 16.131C23.688 15.564 24 14.811 24 14.009C24 13.207 23.688 12.454 23.122 11.888ZM21.707 14.716L14.999 21.423C14.622 21.801 14.12 22.009 13.585 22.009H12.999V21.423C12.999 20.889 13.207 20.387 13.585 20.009L20.293 13.302C20.67 12.924 21.329 12.924 21.707 13.302C21.896 13.49 22 13.741 22 14.009C22 14.277 21.896 14.527 21.707 14.716Z" fill="#B3BACC"/>
</g>
<defs>
<clipPath id="clip0_9594_1409">
<rect width="24" height="24" fill="white" transform="translate(0 0.0090332)"/>
</clipPath>
</defs>
</svg>
