<svg width="118" height="56" viewBox="0 0 118 56" fill="none" xmlns="http://www.w3.org/2000/svg">
<path d="M10.3755 48.916L10.7835 49.684C10.2195 50.26 9.17548 50.62 8.13148 50.62C5.61148 50.62 3.87148 48.916 3.87148 46.3C3.87148 43.888 5.43148 41.98 8.05948 41.98C9.13948 41.98 10.0155 42.28 10.6155 42.796L10.1475 43.564C9.59548 43.156 8.94748 42.94 8.07148 42.94C6.24748 42.94 4.95148 44.308 4.95148 46.3C4.95148 48.304 6.28348 49.66 8.22748 49.66C9.03148 49.66 9.79948 49.384 10.3755 48.916ZM13.4265 50.5H12.4065V42.1C12.8745 42.1 14.4225 42.076 14.6625 42.076C16.9545 42.076 17.6505 43.216 17.6505 44.572C17.6505 45.88 16.7505 46.708 15.8265 46.948L18.6225 50.5H17.3745L14.7945 47.14H13.4265V50.5ZM14.6025 43.036C14.3385 43.036 13.8225 43.048 13.4265 43.06V46.18H14.6625C15.6345 46.18 16.5705 45.58 16.5705 44.584C16.5705 43.72 16.0905 43.036 14.6025 43.036ZM20.1174 50.5V42.1H21.1494L24.3054 46.408L27.3294 42.1H28.3014V50.5H27.2814V43.708L24.3054 47.884H24.1494L21.1374 43.744V50.5H20.1174ZM32.372 51.82V49.6H33.044C33.404 49.144 33.776 48.004 33.872 46.528L33.956 45.1H37.64V49.6H38.54V51.82H37.64V50.5H33.272V51.82H32.372ZM34.796 46.9C34.676 48.28 34.316 49.264 34.064 49.6H36.68V46H34.856L34.796 46.9ZM43.2807 50.5V46.06H41.3847L41.3247 46.972C41.0847 50.044 40.2687 50.572 39.1527 50.572L39.0807 49.636C39.4887 49.672 40.2567 49.276 40.3887 46.78L40.4847 45.1H44.2407V50.5H43.2807ZM48.3354 45.1H50.0154V50.5H49.0554V48.7H48.0114L46.6914 50.5H45.5274L47.0874 48.46C46.5354 48.328 45.9234 47.788 45.9234 46.9C45.9234 45.976 46.5354 45.1 48.3354 45.1ZM46.9434 46.924C46.9434 47.476 47.4714 47.8 47.9514 47.8H49.0554V46H48.1794C47.2794 46 46.9434 46.42 46.9434 46.924ZM53.7718 46.06V45.1H58.6918V46.06H56.7118V50.5H55.7518V46.06H53.7718ZM64.7896 45.1L62.6296 50.5C61.8376 52.432 61.3336 52.9 60.5656 52.9C60.1576 52.9 59.8336 52.756 59.5456 52.564L59.8576 51.832C60.0376 51.916 60.2416 52.012 60.4576 52.012C60.9136 52.012 61.2496 51.652 61.6096 50.788L61.7296 50.5L59.1376 45.1H60.2896L61.8736 48.532C61.9936 48.808 62.0896 49.072 62.1976 49.348C62.2696 49.084 62.3536 48.808 62.4496 48.52L63.6976 45.1H64.7896ZM65.7761 52.9V45.1H66.7361V45.736C67.1081 45.304 67.8281 44.98 68.5721 44.98C70.1081 44.98 71.0681 46.12 71.0681 47.716C71.0681 49.36 69.9521 50.62 68.2601 50.62C67.6841 50.62 67.1201 50.5 66.7361 50.248V52.9H65.7761ZM68.2961 45.88C67.6601 45.88 67.0721 46.204 66.7361 46.624V49.3C67.2161 49.624 67.6601 49.72 68.1761 49.72C69.3281 49.72 70.0481 48.892 70.0481 47.752C70.0481 46.66 69.4121 45.88 68.2961 45.88ZM76.6201 41.98L77.1361 42.736C76.4761 43.624 75.5761 43.276 74.3881 43.816C73.3801 44.272 73.0921 45.412 73.0201 46.42H73.0441C73.3921 45.664 74.2681 45.16 75.1801 45.16C76.7281 45.16 77.6881 46.228 77.6881 47.848C77.6881 49.36 76.5601 50.62 74.9161 50.62C73.1641 50.62 72.0601 49.336 72.0601 47.26C72.0601 45.664 72.3481 43.624 74.0641 42.904C75.3241 42.364 76.0681 42.7 76.6201 41.98ZM73.0801 47.44C73.0801 48.832 73.8241 49.72 74.8921 49.72C75.9481 49.72 76.6681 48.904 76.6681 47.896C76.6681 46.84 76.0561 46.06 74.9401 46.06C73.9201 46.06 73.2481 46.744 73.0801 47.44ZM80.0252 50.5H79.0652V45.1H80.0252V49.12L83.1452 45.1H84.1052V50.5H83.1452V46.48L80.0252 50.5ZM87.6383 50.62C86.8463 50.62 85.7663 50.32 85.4063 49.888L85.8983 49.168C86.3543 49.54 87.0263 49.756 87.4943 49.756C88.3103 49.756 88.9103 49.408 88.9103 48.868C88.9103 48.424 88.5143 48.172 87.8543 48.172H86.9423V47.392H87.7943C88.3343 47.392 88.7303 47.056 88.7303 46.624C88.7303 46.132 88.2743 45.844 87.5783 45.844C86.8343 45.844 86.3183 46.156 85.9583 46.444L85.5863 45.7C86.0303 45.244 86.8703 44.98 87.7223 44.98C89.0423 44.98 89.7503 45.544 89.7503 46.432C89.7503 46.96 89.4863 47.464 88.8023 47.704V47.728C89.5583 47.812 89.9303 48.376 89.9303 49C89.9303 50.008 88.9703 50.62 87.6383 50.62ZM95.3533 50.5V48.22H92.3533V50.5H91.3933V45.1H92.3533V47.32H95.3533V45.1H96.3133V50.5H95.3533ZM102.31 49.156L102.61 49.912C102.082 50.392 101.302 50.62 100.582 50.62C98.8295 50.62 97.6895 49.504 97.6895 47.8C97.6895 46.228 98.6975 44.98 100.474 44.98C101.866 44.98 102.982 45.964 102.982 47.452C102.982 47.716 102.958 47.932 102.922 48.1H98.7695C98.8535 49.12 99.5975 49.72 100.654 49.72C101.35 49.72 101.962 49.48 102.31 49.156ZM100.426 45.88C99.4415 45.88 98.8175 46.492 98.7095 47.32H101.986C101.938 46.432 101.362 45.88 100.426 45.88ZM108.366 49.024L108.822 49.72C108.366 50.308 107.574 50.62 106.746 50.62C105.03 50.62 103.854 49.504 103.854 47.8C103.854 46.228 105.006 44.98 106.59 44.98C107.454 44.98 108.21 45.184 108.714 45.688L108.27 46.444C107.814 46.024 107.286 45.88 106.722 45.88C105.75 45.88 104.874 46.66 104.874 47.8C104.874 48.988 105.75 49.72 106.818 49.72C107.466 49.72 108.006 49.432 108.366 49.024ZM110.361 46.24L110.109 45.472C110.589 45.172 111.237 44.98 111.909 44.98C113.445 44.98 113.985 45.784 113.985 47.188V50.5H113.073V49.804C112.749 50.212 112.233 50.584 111.345 50.584C110.361 50.584 109.689 49.96 109.689 48.916C109.689 47.812 110.565 47.2 111.729 47.2C112.149 47.2 112.713 47.284 113.073 47.548C113.073 46.54 112.917 45.844 111.849 45.844C111.189 45.844 110.793 46.012 110.361 46.24ZM111.681 49.72C112.389 49.72 112.797 49.348 113.073 49.024V48.34C112.737 48.1 112.329 47.98 111.861 47.98C111.285 47.98 110.709 48.244 110.709 48.868C110.709 49.384 111.057 49.72 111.681 49.72Z" fill="white" fill-opacity="0.3"/>
<path d="M15.744 25.7C15.744 26.916 15.5947 27.8867 15.296 28.612C14.9973 29.316 14.5813 29.8067 14.048 30.084C13.536 30.3613 12.8533 30.5 12 30.5C10.7413 30.5 9.824 30.1693 9.248 29.508C8.69333 28.8253 8.40533 27.6307 8.384 25.924L8.32 14.116H5.6C4.256 14.116 3.24267 13.9027 2.56 13.476C1.89867 13.0493 1.568 12.292 1.568 11.204C1.568 10.5427 1.696 10.02 1.952 9.636C2.22933 9.252 2.63467 8.98533 3.168 8.836C3.70133 8.66533 4.416 8.58 5.312 8.58H19.008C20.2027 8.58 21.0667 8.79333 21.6 9.22C22.1333 9.64667 22.4 10.3827 22.4 11.428C22.4 12.132 22.24 12.6867 21.92 13.092C21.6213 13.476 21.216 13.7427 20.704 13.892C20.192 14.0413 19.5307 14.116 18.72 14.116H15.744V25.7ZM27.3863 23.748C27.3863 24.964 27.8556 25.572 28.7943 25.572C29.1143 25.572 29.3916 25.476 29.6263 25.284C29.8823 25.0707 30.0743 24.7827 30.2023 24.42C30.3303 24.0573 30.3943 23.6413 30.3943 23.172V18.884C30.3943 18.1587 30.5223 17.5293 30.7783 16.996C31.0343 16.4413 31.4076 16.0147 31.8983 15.716C32.3889 15.4173 32.9649 15.268 33.6263 15.268C34.7783 15.268 35.6743 15.524 36.3143 16.036C36.9543 16.5267 37.2743 17.444 37.2743 18.788V27.108C37.2743 28.4093 37.0076 29.3053 36.4743 29.796C35.9409 30.2867 35.0023 30.532 33.6583 30.532C33.0823 30.532 32.5916 30.4787 32.1863 30.372C31.7809 30.244 31.4503 30.0627 31.1943 29.828C30.9596 29.5933 30.7783 29.284 30.6503 28.9C29.7756 29.476 28.8476 29.8813 27.8663 30.116C26.9063 30.3507 25.8289 30.468 24.6343 30.468C23.1196 30.468 22.0316 29.8813 21.3703 28.708C20.7089 27.5133 20.3783 25.5613 20.3783 22.852C20.3783 21.508 20.4103 20.42 20.4743 19.588C20.5383 18.7347 20.6343 18.0093 20.7623 17.412C20.9116 16.7933 21.1249 16.3347 21.4023 16.036C21.7009 15.7373 22.0423 15.524 22.4263 15.396C22.8316 15.268 23.3543 15.204 23.9943 15.204C25.1889 15.204 26.0423 15.428 26.5543 15.876C27.0876 16.324 27.3542 16.996 27.3542 17.892L27.3863 23.748ZM47.2583 27.076C47.2583 28.356 46.9916 29.252 46.4583 29.764C45.9249 30.2547 44.9756 30.5 43.6102 30.5C42.3516 30.5 41.4983 30.212 41.0503 29.636C40.6023 29.0387 40.3783 28.068 40.3783 26.724V18.852C40.3783 18.1267 40.5063 17.4973 40.7623 16.964C41.0183 16.4093 41.3916 15.9827 41.8823 15.684C42.3729 15.3853 42.9489 15.236 43.6102 15.236C45.2316 15.236 46.2983 15.7053 46.8103 16.644C48.0476 15.7053 49.2423 15.236 50.3943 15.236C52.6343 15.236 53.7543 16.3027 53.7543 18.436C53.7543 19.2893 53.5089 19.9827 53.0183 20.516C52.5276 21.0493 51.8876 21.316 51.0983 21.316C50.6289 21.316 50.2449 21.22 49.9463 21.028C49.6689 20.836 49.4023 20.644 49.1463 20.452C48.9116 20.26 48.6343 20.164 48.3142 20.164C47.8449 20.164 47.4929 20.324 47.2583 20.644V27.076ZM76.592 27.46C76.592 28.3987 76.3147 29.1453 75.76 29.7C75.2053 30.2333 74.3947 30.5 73.328 30.5C73.0507 30.5 72.7733 30.468 72.496 30.404C72.2187 30.34 71.92 30.2227 71.6 30.052C71.3013 29.8813 71.0347 29.7213 70.8 29.572C70.5653 29.4227 70.2667 29.1987 69.904 28.9C69.5627 28.58 69.2853 28.3347 69.072 28.164C68.88 27.972 68.5707 27.6733 68.144 27.268C67.7173 26.8627 67.408 26.564 67.216 26.372L61.36 20.836V27.78C61.36 28.8253 61.1573 29.54 60.752 29.924C60.368 30.308 59.7493 30.5 58.896 30.5C57.9573 30.5 57.264 30.2867 56.816 29.86C56.368 29.4333 56.144 28.7187 56.144 27.716V12.26C56.144 11.044 56.4533 10.1267 57.072 9.508C57.6907 8.88933 58.576 8.58 59.728 8.58C60.5173 8.58 61.1467 8.708 61.616 8.964C62.1067 9.19866 62.6827 9.636 63.344 10.276L71.44 18.34V11.364C71.44 10.4467 71.664 9.764 72.112 9.316C72.5813 8.84667 73.2107 8.612 74 8.612C74.9173 8.612 75.5787 8.82533 75.984 9.252C76.3893 9.67867 76.592 10.372 76.592 11.332V27.46ZM88.397 30.692C85.7943 30.692 83.6397 30.02 81.933 28.676C80.2477 27.332 79.405 25.4973 79.405 23.172C79.405 20.6547 80.237 18.6707 81.901 17.22C83.5863 15.748 85.7517 15.012 88.397 15.012C90.893 15.012 92.717 15.46 93.869 16.356C95.0423 17.2307 95.629 18.436 95.629 19.972C95.629 20.2707 95.5863 20.5587 95.501 20.836C95.437 21.1133 95.3197 21.3907 95.149 21.668C94.9997 21.924 94.7863 22.1693 94.509 22.404C94.253 22.6173 93.9543 22.82 93.613 23.012C93.2717 23.1827 92.8663 23.3213 92.397 23.428C91.9277 23.5133 91.4263 23.556 90.893 23.556L86.381 23.588C86.5943 24.2707 86.9783 24.8147 87.533 25.22C88.0877 25.604 88.7917 25.796 89.645 25.796C90.5623 25.796 91.501 25.6787 92.461 25.444C92.8663 25.3373 93.3037 25.1667 93.773 24.932C94.2637 24.6973 94.6157 24.58 94.829 24.58C95.1917 24.58 95.469 24.6867 95.661 24.9C95.8743 25.1133 95.981 25.38 95.981 25.7C95.981 26.084 95.8103 26.5533 95.469 27.108C95.1277 27.6413 94.6477 28.1853 94.029 28.74C93.4317 29.2733 92.6317 29.732 91.629 30.116C90.6263 30.5 89.549 30.692 88.397 30.692ZM86.221 21.54C87.693 21.5187 88.493 21.508 88.621 21.508C88.941 21.508 89.1757 21.316 89.325 20.932C89.4317 20.6547 89.485 20.2707 89.485 19.78C89.485 18.436 89.0797 17.764 88.269 17.764C87.9703 17.764 87.6717 17.924 87.373 18.244C87.0957 18.564 86.8503 19.0227 86.637 19.62C86.4237 20.196 86.285 20.836 86.221 21.54ZM108.964 22.916C108.964 21.8067 108.826 20.836 108.548 20.004C108.271 19.1507 107.866 18.724 107.332 18.724C106.97 18.724 106.65 18.9373 106.372 19.364C106.095 19.7907 105.892 20.3133 105.764 20.932C105.636 21.5507 105.572 22.212 105.572 22.916C105.572 24.004 105.722 24.964 106.02 25.796C106.319 26.6067 106.746 27.012 107.3 27.012C107.855 27.012 108.271 26.6067 108.548 25.796C108.826 24.9853 108.964 24.0253 108.964 22.916ZM107.3 30.724C105.636 30.724 104.132 30.4253 102.788 29.828C101.466 29.2307 100.399 28.3347 99.5883 27.14C98.7989 25.9453 98.4043 24.548 98.4043 22.948C98.4043 20.516 99.2363 18.5853 100.9 17.156C102.564 15.7267 104.698 15.012 107.3 15.012C109.903 15.012 112.026 15.7267 113.668 17.156C115.311 18.5853 116.132 20.516 116.132 22.948C116.132 25.3587 115.29 27.2573 113.604 28.644C111.94 30.0307 109.839 30.724 107.3 30.724Z" fill="white"/>
</svg>
