<svg width="19" height="19" viewBox="0 0 19 19" fill="none" xmlns="http://www.w3.org/2000/svg">
<g clip-path="url(#clip0_9623_805)">
<path d="M17.975 8.69044C17.3165 7.25044 14.7343 2.55469 9.10928 2.55469C3.48428 2.55469 0.902028 7.25044 0.243528 8.69044C0.155132 8.88341 0.109375 9.09318 0.109375 9.30544C0.109375 9.5177 0.155132 9.72746 0.243528 9.92044C0.902028 11.3589 3.48428 16.0547 9.10928 16.0547C14.7343 16.0547 17.3165 11.3589 17.975 9.91894C18.0632 9.72618 18.1089 9.51668 18.1089 9.30469C18.1089 9.0927 18.0632 8.8832 17.975 8.69044ZM9.10928 14.5547C4.37903 14.5547 2.17178 10.5302 1.60928 9.31294C2.17178 8.07919 4.37903 4.05469 9.10928 4.05469C13.8283 4.05469 16.0363 8.06194 16.6093 9.30469C16.0363 10.5474 13.8283 14.5547 9.10928 14.5547Z" fill="#3762C8"/>
<path d="M9.10938 5.55469C8.3677 5.55469 7.64267 5.77462 7.02599 6.18668C6.4093 6.59873 5.92866 7.1844 5.64483 7.86962C5.361 8.55485 5.28674 9.30885 5.43143 10.0363C5.57613 10.7637 5.93328 11.4319 6.45773 11.9563C6.98217 12.4808 7.65036 12.8379 8.37779 12.9826C9.10522 13.1273 9.85922 13.0531 10.5444 12.7692C11.2297 12.4854 11.8153 12.0048 12.2274 11.3881C12.6394 10.7714 12.8594 10.0464 12.8594 9.30469C12.8582 8.31049 12.4627 7.35736 11.7597 6.65435C11.0567 5.95135 10.1036 5.55588 9.10938 5.55469ZM9.10938 11.5547C8.66437 11.5547 8.22935 11.4227 7.85934 11.1755C7.48933 10.9283 7.20094 10.5769 7.03065 10.1657C6.86035 9.75459 6.81579 9.30219 6.90261 8.86573C6.98943 8.42928 7.20372 8.02837 7.51839 7.7137C7.83305 7.39903 8.23397 7.18474 8.67042 7.09792C9.10688 7.0111 9.55928 7.05566 9.97041 7.22596C10.3815 7.39626 10.733 7.68464 10.9802 8.05465C11.2274 8.42466 11.3594 8.85968 11.3594 9.30469C11.3594 9.90142 11.1223 10.4737 10.7004 10.8957C10.2784 11.3176 9.70611 11.5547 9.10938 11.5547Z" fill="#3762C8"/>
</g>
<defs>
<clipPath id="clip0_9623_805">
<rect width="18" height="18" fill="white" transform="translate(0.109375 0.304688)"/>
</clipPath>
</defs>
</svg>
