<svg width="19" height="19" viewBox="0 0 19 19" fill="none" xmlns="http://www.w3.org/2000/svg">
<g clip-path="url(#clip0_9626_1568)">
<path d="M9.65625 0.499023C7.87622 0.499023 6.13616 1.02686 4.65612 2.0158C3.17608 3.00473 2.02253 4.41034 1.34134 6.05487C0.66015 7.69941 0.48192 9.50901 0.829187 11.2548C1.17645 13.0007 2.03362 14.6043 3.29229 15.863C4.55097 17.1217 6.15461 17.9788 7.90044 18.3261C9.64627 18.6734 11.4559 18.4951 13.1004 17.8139C14.7449 17.1328 16.1505 15.9792 17.1395 14.4992C18.1284 13.0191 18.6563 11.2791 18.6563 9.49902C18.6537 7.11287 17.7046 4.82518 16.0174 3.13791C14.3301 1.45064 12.0424 0.501604 9.65625 0.499023ZM9.65625 16.999C8.17289 16.999 6.72285 16.5592 5.48948 15.735C4.25611 14.9109 3.29481 13.7396 2.72716 12.3692C2.1595 10.9987 2.01098 9.4907 2.30036 8.03585C2.58975 6.58099 3.30406 5.24462 4.35295 4.19572C5.40185 3.14683 6.73822 2.43252 8.19308 2.14313C9.64793 1.85374 11.1559 2.00227 12.5264 2.56993C13.8968 3.13758 15.0682 4.09888 15.8923 5.33225C16.7164 6.56562 17.1563 8.01566 17.1563 9.49902C17.1541 11.4875 16.3632 13.3939 14.9571 14.7999C13.5511 16.206 11.6447 16.9968 9.65625 16.999ZM13.4063 9.49902C13.4063 9.69794 13.3272 9.8887 13.1866 10.0294C13.0459 10.17 12.8552 10.249 12.6563 10.249H10.4063V12.499C10.4063 12.6979 10.3272 12.8887 10.1866 13.0294C10.0459 13.17 9.85517 13.249 9.65625 13.249C9.45734 13.249 9.26658 13.17 9.12592 13.0294C8.98527 12.8887 8.90625 12.6979 8.90625 12.499V10.249H6.65625C6.45734 10.249 6.26658 10.17 6.12592 10.0294C5.98527 9.8887 5.90625 9.69794 5.90625 9.49902C5.90625 9.30011 5.98527 9.10935 6.12592 8.96869C6.26658 8.82804 6.45734 8.74902 6.65625 8.74902H8.90625V6.49902C8.90625 6.30011 8.98527 6.10935 9.12592 5.96869C9.26658 5.82804 9.45734 5.74902 9.65625 5.74902C9.85517 5.74902 10.0459 5.82804 10.1866 5.96869C10.3272 6.10935 10.4063 6.30011 10.4063 6.49902V8.74902H12.6563C12.8552 8.74902 13.0459 8.82804 13.1866 8.96869C13.3272 9.10935 13.4063 9.30011 13.4063 9.49902Z" fill="#3762C8"/>
</g>
<defs>
<clipPath id="clip0_9626_1568">
<rect width="18" height="18" fill="white" transform="translate(0.65625 0.499023)"/>
</clipPath>
</defs>
</svg>
