<svg width="19" height="18" viewBox="0 0 19 18" fill="none" xmlns="http://www.w3.org/2000/svg">
<g clip-path="url(#clip0_9626_1588)">
<path d="M14.4453 4.49902V2.99902C14.4453 2.20337 14.1292 1.44031 13.5666 0.877703C13.004 0.315094 12.241 -0.000976562 11.4453 -0.000976562L6.94531 -0.000976562C6.14966 -0.000976562 5.3866 0.315094 4.82399 0.877703C4.26138 1.44031 3.94531 2.20337 3.94531 2.99902V4.49902C2.95112 4.50021 1.99798 4.89568 1.29498 5.59869C0.591974 6.30169 0.196503 7.25483 0.195313 8.24902L0.195312 11.999C0.196503 12.9932 0.591974 13.9464 1.29498 14.6494C1.99798 15.3524 2.95112 15.7478 3.94531 15.749C3.94531 16.3458 4.18237 16.9181 4.60432 17.34C5.02628 17.762 5.59858 17.999 6.19531 17.999H12.1953C12.792 17.999 13.3643 17.762 13.7863 17.34C14.2083 16.9181 14.4453 16.3458 14.4453 15.749C15.4395 15.7478 16.3926 15.3524 17.0956 14.6494C17.7987 13.9464 18.1941 12.9932 18.1953 11.999V8.24902C18.1941 7.25483 17.7987 6.30169 17.0956 5.59869C16.3926 4.89568 15.4395 4.50021 14.4453 4.49902ZM5.44531 2.99902C5.44531 2.6012 5.60335 2.21967 5.88465 1.93836C6.16596 1.65706 6.54749 1.49902 6.94531 1.49902H11.4453C11.8431 1.49902 12.2247 1.65706 12.506 1.93836C12.7873 2.21967 12.9453 2.6012 12.9453 2.99902V4.49902H5.44531V2.99902ZM12.9453 15.749C12.9453 15.9479 12.8663 16.1387 12.7256 16.2794C12.585 16.42 12.3942 16.499 12.1953 16.499H6.19531C5.9964 16.499 5.80563 16.42 5.66498 16.2794C5.52433 16.1387 5.44531 15.9479 5.44531 15.749V12.749C5.44531 12.5501 5.52433 12.3593 5.66498 12.2187C5.80563 12.078 5.9964 11.999 6.19531 11.999H12.1953C12.3942 11.999 12.585 12.078 12.7256 12.2187C12.8663 12.3593 12.9453 12.5501 12.9453 12.749V15.749ZM16.6953 11.999C16.6953 12.5958 16.4583 13.1681 16.0363 13.59C15.6143 14.012 15.042 14.249 14.4453 14.249V12.749C14.4453 12.1523 14.2083 11.58 13.7863 11.158C13.3643 10.7361 12.792 10.499 12.1953 10.499H6.19531C5.59858 10.499 5.02628 10.7361 4.60432 11.158C4.18237 11.58 3.94531 12.1523 3.94531 12.749V14.249C3.34858 14.249 2.77628 14.012 2.35432 13.59C1.93237 13.1681 1.69531 12.5958 1.69531 11.999V8.24902C1.69531 7.65229 1.93237 7.07999 2.35432 6.65803C2.77628 6.23608 3.34858 5.99902 3.94531 5.99902H14.4453C15.042 5.99902 15.6143 6.23608 16.0363 6.65803C16.4583 7.07999 16.6953 7.65229 16.6953 8.24902V11.999Z" fill="#3762C8"/>
<path d="M13.6953 7.49902H12.1953C11.9964 7.49902 11.8056 7.57804 11.665 7.71869C11.5243 7.85935 11.4453 8.05011 11.4453 8.24902C11.4453 8.44794 11.5243 8.6387 11.665 8.77935C11.8056 8.92001 11.9964 8.99902 12.1953 8.99902H13.6953C13.8942 8.99902 14.085 8.92001 14.2256 8.77935C14.3663 8.6387 14.4453 8.44794 14.4453 8.24902C14.4453 8.05011 14.3663 7.85935 14.2256 7.71869C14.085 7.57804 13.8942 7.49902 13.6953 7.49902Z" fill="#3762C8"/>
</g>
<defs>
<clipPath id="clip0_9626_1588">
<rect width="18" height="18" fill="white" transform="translate(0.195312 -0.000976562)"/>
</clipPath>
</defs>
</svg>
