<svg width="19" height="19" viewBox="0 0 19 19" fill="none" xmlns="http://www.w3.org/2000/svg">
<g clip-path="url(#clip0_9626_1586)">
<path d="M14.3051 8.24902C14.5368 8.24902 14.7558 8.14177 14.8976 7.95877C15.0393 7.77577 15.0888 7.53727 15.0318 7.31302C14.7986 6.40027 14.3231 5.56627 13.6571 4.90027L11.0433 2.28652C10.0518 1.29502 8.73331 0.749023 7.33081 0.749023H3.94456C1.87756 0.749023 0.195312 2.43127 0.195312 4.49902V14.999C0.195312 17.0668 1.87756 18.749 3.94531 18.749H6.19531C6.60931 18.749 6.94531 18.413 6.94531 17.999C6.94531 17.585 6.60931 17.249 6.19531 17.249H3.94531C2.70481 17.249 1.69531 16.2395 1.69531 14.999V4.49902C1.69531 3.25852 2.70481 2.24902 3.94531 2.24902H7.33156C7.45381 2.24902 7.57531 2.25502 7.69531 2.26627V5.99902C7.69531 7.23952 8.70481 8.24902 9.94531 8.24902H14.3051ZM9.19531 5.99902V2.74327C9.47956 2.90677 9.74431 3.10927 9.98281 3.34777L12.5966 5.96152C12.8321 6.19702 13.0338 6.46252 13.1988 6.74902H9.94531C9.53206 6.74902 9.19531 6.41227 9.19531 5.99902ZM17.5368 9.65827C16.6863 8.80777 15.2043 8.80777 14.3546 9.65827L9.32431 14.6885C8.75806 15.2548 8.44531 16.0085 8.44531 16.8103V17.9998C8.44531 18.4138 8.78131 18.7498 9.19531 18.7498H10.3848C11.1866 18.7498 11.9396 18.437 12.5058 17.8708L17.5361 12.8405C17.9613 12.4153 18.1953 11.8505 18.1953 11.249C18.1953 10.6475 17.9613 10.0828 17.5368 9.65827ZM16.4756 11.7793L11.4446 16.8095C11.1618 17.093 10.7853 17.249 10.3841 17.249H9.94456V16.8095C9.94456 16.409 10.1006 16.0325 10.3841 15.749L15.4151 10.7188C15.6978 10.4353 16.1921 10.4353 16.4756 10.7188C16.6173 10.8598 16.6953 11.048 16.6953 11.249C16.6953 11.45 16.6173 11.6375 16.4756 11.7793Z" fill="#3762C8"/>
</g>
<defs>
<clipPath id="clip0_9626_1586">
<rect width="18" height="18" fill="white" transform="translate(0.195312 0.749023)"/>
</clipPath>
</defs>
</svg>
