<svg width="19" height="19" viewBox="0 0 19 19" fill="none" xmlns="http://www.w3.org/2000/svg">
<g clip-path="url(#clip0_9626_1570)">
<path d="M5.90625 4.99902H17.9062C18.1052 4.99902 18.2959 4.92001 18.4366 4.77935C18.5772 4.6387 18.6562 4.44794 18.6562 4.24902C18.6562 4.05011 18.5772 3.85935 18.4366 3.71869C18.2959 3.57804 18.1052 3.49902 17.9062 3.49902H5.90625C5.70734 3.49902 5.51657 3.57804 5.37592 3.71869C5.23527 3.85935 5.15625 4.05011 5.15625 4.24902C5.15625 4.44794 5.23527 4.6387 5.37592 4.77935C5.51657 4.92001 5.70734 4.99902 5.90625 4.99902Z" fill="#3762C8"/>
<path d="M17.9062 8.74902H5.90625C5.70734 8.74902 5.51657 8.82804 5.37592 8.96869C5.23527 9.10935 5.15625 9.30011 5.15625 9.49902C5.15625 9.69794 5.23527 9.8887 5.37592 10.0294C5.51657 10.17 5.70734 10.249 5.90625 10.249H17.9062C18.1052 10.249 18.2959 10.17 18.4366 10.0294C18.5772 9.8887 18.6562 9.69794 18.6562 9.49902C18.6562 9.30011 18.5772 9.10935 18.4366 8.96869C18.2959 8.82804 18.1052 8.74902 17.9062 8.74902Z" fill="#3762C8"/>
<path d="M17.9062 13.999H5.90625C5.70734 13.999 5.51657 14.078 5.37592 14.2187C5.23527 14.3593 5.15625 14.5501 5.15625 14.749C5.15625 14.9479 5.23527 15.1387 5.37592 15.2794C5.51657 15.42 5.70734 15.499 5.90625 15.499H17.9062C18.1052 15.499 18.2959 15.42 18.4366 15.2794C18.5772 15.1387 18.6562 14.9479 18.6562 14.749C18.6562 14.5501 18.5772 14.3593 18.4366 14.2187C18.2959 14.078 18.1052 13.999 17.9062 13.999Z" fill="#3762C8"/>
<path d="M2.15625 5.74902C2.98468 5.74902 3.65625 5.07745 3.65625 4.24902C3.65625 3.4206 2.98468 2.74902 2.15625 2.74902C1.32782 2.74902 0.65625 3.4206 0.65625 4.24902C0.65625 5.07745 1.32782 5.74902 2.15625 5.74902Z" fill="#3762C8"/>
<path d="M2.15625 10.999C2.98468 10.999 3.65625 10.3275 3.65625 9.49902C3.65625 8.6706 2.98468 7.99902 2.15625 7.99902C1.32782 7.99902 0.65625 8.6706 0.65625 9.49902C0.65625 10.3275 1.32782 10.999 2.15625 10.999Z" fill="#3762C8"/>
<path d="M2.15625 16.249C2.98468 16.249 3.65625 15.5775 3.65625 14.749C3.65625 13.9206 2.98468 13.249 2.15625 13.249C1.32782 13.249 0.65625 13.9206 0.65625 14.749C0.65625 15.5775 1.32782 16.249 2.15625 16.249Z" fill="#3762C8"/>
</g>
<defs>
<clipPath id="clip0_9626_1570">
<rect width="18" height="18" fill="white" transform="translate(0.65625 0.499023)"/>
</clipPath>
</defs>
</svg>
