<svg width="168" height="79" viewBox="0 0 168 79" fill="none" xmlns="http://www.w3.org/2000/svg">
<path d="M23.2194 68.02L23.7294 68.98C23.0244 69.7 21.7194 70.15 20.4144 70.15C17.2644 70.15 15.0894 68.02 15.0894 64.75C15.0894 61.735 17.0394 59.35 20.3244 59.35C21.6744 59.35 22.7694 59.725 23.5194 60.37L22.9344 61.33C22.2444 60.82 21.4344 60.55 20.3394 60.55C18.0594 60.55 16.4394 62.26 16.4394 64.75C16.4394 67.255 18.1044 68.95 20.5344 68.95C21.5394 68.95 22.4994 68.605 23.2194 68.02ZM27.0331 70H25.7581V59.5C26.3431 59.5 28.2781 59.47 28.5781 59.47C31.4431 59.47 32.3131 60.895 32.3131 62.59C32.3131 64.225 31.1881 65.26 30.0331 65.56L33.5281 70H31.9681L28.7431 65.8H27.0331V70ZM28.5031 60.67C28.1731 60.67 27.5281 60.685 27.0331 60.7V64.6H28.5781C29.7931 64.6 30.9631 63.85 30.9631 62.605C30.9631 61.525 30.3631 60.67 28.5031 60.67ZM35.3968 70V59.5H36.6868L40.6318 64.885L44.4118 59.5H45.6268V70H44.3518V61.51L40.6318 66.73H40.4368L36.6718 61.555V70H35.3968ZM50.7149 71.65V68.875H51.5549C52.0049 68.305 52.4699 66.88 52.5899 65.035L52.6949 63.25H57.2999V68.875H58.4249V71.65H57.2999V70H51.8399V71.65H50.7149ZM53.7449 65.5C53.5949 67.225 53.1449 68.455 52.8299 68.875H56.0999V64.375H53.8199L53.7449 65.5ZM64.3509 70V64.45H61.9809L61.9059 65.59C61.6059 69.43 60.5859 70.09 59.1909 70.09L59.1009 68.92C59.6109 68.965 60.5709 68.47 60.7359 65.35L60.8559 63.25H65.5509V70H64.3509ZM70.6693 63.25H72.7693V70H71.5693V67.75H70.2643L68.6143 70H67.1593L69.1093 67.45C68.4193 67.285 67.6543 66.61 67.6543 65.5C67.6543 64.345 68.4193 63.25 70.6693 63.25ZM68.9293 65.53C68.9293 66.22 69.5893 66.625 70.1893 66.625H71.5693V64.375H70.4743C69.3493 64.375 68.9293 64.9 68.9293 65.53ZM77.4647 64.45V63.25H83.6147V64.45H81.1397V70H79.9397V64.45H77.4647ZM91.237 63.25L88.537 70C87.547 72.415 86.917 73 85.957 73C85.447 73 85.042 72.82 84.682 72.58L85.072 71.665C85.297 71.77 85.552 71.89 85.822 71.89C86.392 71.89 86.812 71.44 87.262 70.36L87.412 70L84.172 63.25H85.612L87.592 67.54C87.742 67.885 87.862 68.215 87.997 68.56C88.087 68.23 88.192 67.885 88.312 67.525L89.872 63.25H91.237ZM92.4701 73V63.25H93.6701V64.045C94.1351 63.505 95.0351 63.1 95.9651 63.1C97.8851 63.1 99.0851 64.525 99.0851 66.52C99.0851 68.575 97.6901 70.15 95.5751 70.15C94.8551 70.15 94.1501 70 93.6701 69.685V73H92.4701ZM95.6201 64.225C94.8251 64.225 94.0901 64.63 93.6701 65.155V68.5C94.2701 68.905 94.8251 69.025 95.4701 69.025C96.9101 69.025 97.8101 67.99 97.8101 66.565C97.8101 65.2 97.0151 64.225 95.6201 64.225ZM106.025 59.35L106.67 60.295C105.845 61.405 104.72 60.97 103.235 61.645C101.975 62.215 101.615 63.64 101.525 64.9H101.555C101.99 63.955 103.085 63.325 104.225 63.325C106.16 63.325 107.36 64.66 107.36 66.685C107.36 68.575 105.95 70.15 103.895 70.15C101.705 70.15 100.325 68.545 100.325 65.95C100.325 63.955 100.685 61.405 102.83 60.505C104.405 59.83 105.335 60.25 106.025 59.35ZM101.6 66.175C101.6 67.915 102.53 69.025 103.865 69.025C105.185 69.025 106.085 68.005 106.085 66.745C106.085 65.425 105.32 64.45 103.925 64.45C102.65 64.45 101.81 65.305 101.6 66.175ZM110.281 70H109.081V63.25H110.281V68.275L114.181 63.25H115.381V70H114.181V64.975L110.281 70ZM119.798 70.15C118.808 70.15 117.458 69.775 117.008 69.235L117.623 68.335C118.193 68.8 119.033 69.07 119.618 69.07C120.638 69.07 121.388 68.635 121.388 67.96C121.388 67.405 120.893 67.09 120.068 67.09H118.928V66.115H119.993C120.668 66.115 121.163 65.695 121.163 65.155C121.163 64.54 120.593 64.18 119.723 64.18C118.793 64.18 118.148 64.57 117.698 64.93L117.233 64C117.788 63.43 118.838 63.1 119.903 63.1C121.553 63.1 122.438 63.805 122.438 64.915C122.438 65.575 122.108 66.205 121.253 66.505V66.535C122.198 66.64 122.663 67.345 122.663 68.125C122.663 69.385 121.463 70.15 119.798 70.15ZM129.442 70V67.15H125.692V70H124.492V63.25H125.692V66.025H129.442V63.25H130.642V70H129.442ZM138.137 68.32L138.512 69.265C137.852 69.865 136.877 70.15 135.977 70.15C133.787 70.15 132.362 68.755 132.362 66.625C132.362 64.66 133.622 63.1 135.842 63.1C137.582 63.1 138.977 64.33 138.977 66.19C138.977 66.52 138.947 66.79 138.902 67H133.712C133.817 68.275 134.747 69.025 136.067 69.025C136.937 69.025 137.702 68.725 138.137 68.32ZM135.782 64.225C134.552 64.225 133.772 64.99 133.637 66.025H137.732C137.672 64.915 136.952 64.225 135.782 64.225ZM145.707 68.155L146.277 69.025C145.707 69.76 144.717 70.15 143.682 70.15C141.537 70.15 140.067 68.755 140.067 66.625C140.067 64.66 141.507 63.1 143.487 63.1C144.567 63.1 145.512 63.355 146.142 63.985L145.587 64.93C145.017 64.405 144.357 64.225 143.652 64.225C142.437 64.225 141.342 65.2 141.342 66.625C141.342 68.11 142.437 69.025 143.772 69.025C144.582 69.025 145.257 68.665 145.707 68.155ZM148.201 64.675L147.886 63.715C148.486 63.34 149.296 63.1 150.136 63.1C152.056 63.1 152.731 64.105 152.731 65.86V70H151.591V69.13C151.186 69.64 150.541 70.105 149.431 70.105C148.201 70.105 147.361 69.325 147.361 68.02C147.361 66.64 148.456 65.875 149.911 65.875C150.436 65.875 151.141 65.98 151.591 66.31C151.591 65.05 151.396 64.18 150.061 64.18C149.236 64.18 148.741 64.39 148.201 64.675ZM149.851 69.025C150.736 69.025 151.246 68.56 151.591 68.155V67.3C151.171 67 150.661 66.85 150.076 66.85C149.356 66.85 148.636 67.18 148.636 67.96C148.636 68.605 149.071 69.025 149.851 69.025Z" fill="#828282"/>
<path d="M22.4152 35.1661C22.4152 36.8974 22.2026 38.2793 21.7774 39.312C21.3521 40.3143 20.7599 41.0129 20.0005 41.4077C19.2716 41.8026 18.2997 42 17.0847 42C15.2927 42 13.9867 41.5292 13.1666 40.5877C12.3769 39.6157 11.9669 37.9148 11.9365 35.485L11.8454 18.6736H7.97288C6.05939 18.6736 4.61668 18.3699 3.64475 17.7624C2.70319 17.155 2.23241 16.0767 2.23241 14.5277C2.23241 13.5862 2.41464 12.842 2.77912 12.2953C3.17397 11.7486 3.75105 11.3689 4.51037 11.1563C5.2697 10.9134 6.28719 10.7919 7.56285 10.7919H27.0622C28.7631 10.7919 29.9932 11.0956 30.7525 11.703C31.5119 12.3105 31.8915 13.3584 31.8915 14.8466C31.8915 15.8489 31.6637 16.6386 31.2081 17.2157C30.7829 17.7624 30.2058 18.1421 29.4769 18.3547C28.7479 18.5673 27.8064 18.6736 26.6522 18.6736H22.4152V35.1661ZM38.9906 32.387C38.9906 34.1182 39.6588 34.9839 40.9952 34.9839C41.4508 34.9839 41.8456 34.8472 42.1797 34.5738C42.5442 34.2701 42.8176 33.8601 42.9998 33.3437C43.1821 32.8274 43.2732 32.2351 43.2732 31.5669V25.462C43.2732 24.4293 43.4554 23.5333 43.8199 22.774C44.1844 21.9843 44.7159 21.3768 45.4145 20.9516C46.113 20.5264 46.9331 20.3138 47.8747 20.3138C49.5148 20.3138 50.7905 20.6782 51.7016 21.4072C52.6128 22.1058 53.0684 23.4118 53.0684 25.3253V37.1707C53.0684 39.0235 52.6888 40.2991 51.9294 40.9977C51.1701 41.6963 49.8337 42.0456 47.9202 42.0456C47.1002 42.0456 46.4016 41.9696 45.8245 41.8178C45.2474 41.6355 44.7766 41.3774 44.4122 41.0433C44.0781 40.7092 43.8199 40.2687 43.6376 39.722C42.3924 40.5421 41.0711 41.1192 39.674 41.4533C38.3072 41.7874 36.7734 41.9544 35.0725 41.9544C32.916 41.9544 31.367 41.1192 30.4254 39.4487C29.4839 37.7478 29.0131 34.9687 29.0131 31.1113C29.0131 29.1978 29.0587 27.6488 29.1498 26.4643C29.2409 25.2494 29.3776 24.2167 29.5598 23.3662C29.7724 22.4854 30.0762 21.8324 30.471 21.4072C30.8962 20.982 31.3822 20.6782 31.9289 20.496C32.506 20.3138 33.2501 20.2226 34.1613 20.2226C35.8622 20.2226 37.0771 20.5416 37.8061 21.1794C38.5654 21.8172 38.945 22.774 38.945 24.0496L38.9906 32.387ZM67.2829 37.1252C67.2829 38.9475 66.9033 40.2232 66.144 40.9521C65.3846 41.6507 64.033 42 62.0892 42C60.2972 42 59.0823 41.59 58.4444 40.7699C57.8066 39.9195 57.4877 38.5375 57.4877 36.624V25.4164C57.4877 24.3837 57.6699 23.4877 58.0344 22.7284C58.3989 21.9387 58.9304 21.3313 59.629 20.906C60.3275 20.4808 61.1476 20.2682 62.0892 20.2682C64.3975 20.2682 65.9162 20.9364 66.6451 22.2728C68.4067 20.9364 70.1076 20.2682 71.7478 20.2682C74.9369 20.2682 76.5315 21.7868 76.5315 24.8241C76.5315 26.0391 76.1822 27.0262 75.4836 27.7855C74.785 28.5448 73.8739 28.9245 72.7501 28.9245C72.0819 28.9245 71.5351 28.7878 71.1099 28.5144C70.7151 28.2411 70.3354 27.9677 69.9709 27.6944C69.6368 27.421 69.242 27.2843 68.7864 27.2843C68.1182 27.2843 67.617 27.5121 67.2829 27.9677V37.1252ZM109.046 37.6719C109.046 39.0083 108.651 40.0713 107.862 40.861C107.072 41.6203 105.918 42 104.399 42C104.004 42 103.609 41.9544 103.215 41.8633C102.82 41.7722 102.395 41.6052 101.939 41.3622C101.514 41.1192 101.134 40.8914 100.8 40.6788C100.466 40.4662 100.041 40.1473 99.5243 39.722C99.0384 39.2664 98.6435 38.9172 98.3398 38.6742C98.0664 38.4008 97.626 37.9756 97.0186 37.3985C96.4111 36.8214 95.9707 36.3962 95.6974 36.1228L87.36 28.2411V38.1275C87.36 39.6157 87.0715 40.6332 86.4944 41.1799C85.9477 41.7266 85.0668 42 83.8519 42C82.5155 42 81.5284 41.6963 80.8906 41.0888C80.2527 40.4814 79.9338 39.4639 79.9338 38.0363V16.0312C79.9338 14.2999 80.3742 12.9939 81.2551 12.1131C82.1359 11.2323 83.3963 10.7919 85.0365 10.7919C86.1603 10.7919 87.0563 10.9741 87.7245 11.3386C88.4231 11.6727 89.2431 12.2953 90.1847 13.2065L101.711 24.6875V14.7555C101.711 13.4495 102.03 12.4776 102.668 11.8397C103.336 11.1715 104.232 10.8374 105.356 10.8374C106.662 10.8374 107.604 11.1412 108.181 11.7486C108.758 12.3561 109.046 13.3432 109.046 14.71V37.6719ZM125.853 42.2734C122.148 42.2734 119.08 41.3166 116.65 39.4031C114.251 37.4896 113.051 34.8776 113.051 31.5669C113.051 27.9829 114.236 25.1582 116.605 23.0929C119.004 20.9972 122.087 19.9493 125.853 19.9493C129.407 19.9493 132.004 20.5871 133.644 21.8628C135.315 23.1081 136.15 24.8241 136.15 27.011C136.15 27.4362 136.089 27.8462 135.968 28.2411C135.876 28.6359 135.709 29.0308 135.466 29.4256C135.254 29.7901 134.95 30.1394 134.555 30.4735C134.191 30.7772 133.765 31.0658 133.28 31.3391C132.794 31.5821 132.216 31.7795 131.548 31.9314C130.88 32.0529 130.166 32.1136 129.407 32.1136L122.983 32.1592C123.287 33.1311 123.834 33.9056 124.623 34.4827C125.413 35.0294 126.415 35.3028 127.63 35.3028C128.936 35.3028 130.273 35.1357 131.639 34.8016C132.216 34.6498 132.839 34.4068 133.507 34.0727C134.206 33.7386 134.707 33.5715 135.011 33.5715C135.527 33.5715 135.922 33.7234 136.195 34.0271C136.499 34.3308 136.651 34.7105 136.651 35.1661C136.651 35.7128 136.408 36.381 135.922 37.1707C135.436 37.93 134.753 38.7045 133.872 39.4942C133.021 40.2536 131.882 40.9066 130.455 41.4533C129.027 42 127.493 42.2734 125.853 42.2734ZM122.755 29.2434C124.851 29.213 125.99 29.1978 126.172 29.1978C126.628 29.1978 126.962 28.9245 127.175 28.3778C127.326 27.9829 127.402 27.4362 127.402 26.7376C127.402 24.8241 126.825 23.8674 125.671 23.8674C125.246 23.8674 124.821 24.0952 124.395 24.5508C124.001 25.0064 123.651 25.6594 123.348 26.5098C123.044 27.3299 122.846 28.2411 122.755 29.2434ZM155.136 31.2024C155.136 29.6231 154.938 28.2411 154.543 27.0565C154.148 25.8416 153.571 25.2342 152.812 25.2342C152.296 25.2342 151.84 25.5379 151.445 26.1454C151.05 26.7528 150.762 27.4969 150.58 28.3778C150.397 29.2586 150.306 30.2001 150.306 31.2024C150.306 32.7515 150.519 34.1182 150.944 35.3028C151.369 36.4569 151.977 37.034 152.766 37.034C153.556 37.034 154.148 36.4569 154.543 35.3028C154.938 34.1486 155.136 32.7818 155.136 31.2024ZM152.766 42.3189C150.397 42.3189 148.256 41.8937 146.343 41.0433C144.459 40.1928 142.941 38.9172 141.787 37.2163C140.663 35.5154 140.101 33.526 140.101 31.248C140.101 27.7855 141.286 25.0367 143.655 23.0018C146.024 20.9668 149.061 19.9493 152.766 19.9493C156.472 19.9493 159.494 20.9668 161.833 23.0018C164.171 25.0367 165.341 27.7855 165.341 31.248C165.341 34.6801 164.141 37.3833 161.742 39.3576C159.373 41.3318 156.381 42.3189 152.766 42.3189Z" fill="#3762C8"/>
</svg>
