<svg width="56" height="41" viewBox="0 0 56 41" fill="none" xmlns="http://www.w3.org/2000/svg">
<path d="M29.3656 26.0523C29.3656 19.6523 31.2156 14.3523 34.9156 10.1523C38.5156 5.95234 42.0656 3.25234 45.5656 2.05234C50.1656 0.352337 52.4656 0.452343 52.4656 2.35234C52.4656 3.25234 51.6656 4.40234 50.0656 5.80234C48.2656 7.50234 47.0156 8.90234 46.3156 10.0023C45.5156 11.2023 45.2156 12.1523 45.4156 12.8523C45.6156 13.5523 46.1656 14.0523 47.0656 14.3523C49.6656 15.4523 51.7656 17.1023 53.3656 19.3023C54.9656 21.5023 55.7656 24.0523 55.7656 26.9523C55.7656 30.5523 54.5156 33.6523 52.0156 36.2523C49.4156 38.8523 46.2656 40.1523 42.5656 40.1523C38.9656 40.1523 35.8656 38.8023 33.2656 36.1023C30.6656 33.4023 29.3656 30.0523 29.3656 26.0523ZM0.865623 26.0523C0.865623 19.6523 2.71562 14.3523 6.41562 10.1523C10.0156 5.95234 13.5656 3.25234 17.0656 2.05234C21.5656 0.452339 23.8156 0.552341 23.8156 2.35234C23.8156 3.35234 23.0656 4.50233 21.5656 5.80234C19.7656 7.50234 18.5156 8.90234 17.8156 10.0023C17.0156 11.2023 16.7156 12.1523 16.9156 12.8523C17.1156 13.5523 17.6656 14.0523 18.5656 14.3523C21.1656 15.4523 23.2656 17.1023 24.8656 19.3023C26.4656 21.5023 27.2656 24.0523 27.2656 26.9523C27.2656 30.5523 25.9656 33.6523 23.3656 36.2523C20.7656 38.8523 17.6656 40.1523 14.0656 40.1523C10.4656 40.1523 7.36562 38.8023 4.76562 36.1023C2.16562 33.4023 0.865623 30.0523 0.865623 26.0523Z" fill="#E2EAFF"/>
</svg>
