<svg width="55" height="40" viewBox="0 0 55 40" fill="none" xmlns="http://www.w3.org/2000/svg">
<path d="M26.4 14.2958C26.4 20.6958 24.55 25.9958 20.85 30.1958C17.25 34.3958 13.7 37.0958 10.2 38.2958C5.6 39.9958 3.3 39.8958 3.3 37.9958C3.3 37.0958 4.1 35.9458 5.7 34.5458C7.5 32.8458 8.75 31.4458 9.45 30.3458C10.25 29.1458 10.55 28.1958 10.35 27.4958C10.15 26.7958 9.6 26.2958 8.7 25.9958C6.1 24.8958 4 23.2458 2.4 21.0458C0.8 18.8458 0 16.2958 0 13.3958C0 9.79581 1.25 6.6958 3.75 4.0958C6.35 1.4958 9.5 0.195801 13.2 0.195801C16.8 0.195801 19.9 1.5458 22.5 4.2458C25.1 6.9458 26.4 10.2958 26.4 14.2958ZM54.9 14.2958C54.9 20.6958 53.05 25.9958 49.35 30.1958C45.75 34.3958 42.2 37.0958 38.7 38.2958C34.2 39.8958 31.95 39.7958 31.95 37.9958C31.95 36.9958 32.7 35.8458 34.2 34.5458C36 32.8458 37.25 31.4458 37.95 30.3458C38.75 29.1458 39.05 28.1958 38.85 27.4958C38.65 26.7958 38.1 26.2958 37.2 25.9958C34.6 24.8958 32.5 23.2458 30.9 21.0458C29.3 18.8458 28.5 16.2958 28.5 13.3958C28.5 9.79581 29.8 6.6958 32.4 4.0958C35 1.4958 38.1 0.195801 41.7 0.195801C45.3 0.195801 48.4 1.5458 51 4.2458C53.6 6.9458 54.9 10.2958 54.9 14.2958Z" fill="#E2EAFF"/>
</svg>
