<svg width="24" height="24" viewBox="0 0 24 24" fill="none" xmlns="http://www.w3.org/2000/svg">
<g clip-path="url(#clip0_9593_1341)">
<path d="M23.562 21.4452L18.9165 16.7981C22.3925 12.1533 21.4447 5.57034 16.7995 2.09462C12.1544 -1.3811 5.57081 -0.433388 2.09479 4.21139C-1.38122 8.85617 -0.433425 15.4392 4.21174 18.9149C7.94312 21.7069 13.0681 21.7069 16.7995 18.9149L21.447 23.562C22.0311 24.146 22.978 24.146 23.562 23.562C24.146 22.978 24.146 22.0312 23.562 21.4472L23.562 21.4452ZM10.5444 18.018C6.41596 18.018 3.06927 14.6715 3.06927 10.5435C3.06927 6.41543 6.41596 3.06901 10.5444 3.06901C14.6728 3.06901 18.0195 6.41543 18.0195 10.5435C18.0151 14.6697 14.6709 18.0136 10.5444 18.018Z" fill="#3762C8"/>
</g>
<defs>
<clipPath id="clip0_9593_1341">
<rect width="24" height="24" fill="white"/>
</clipPath>
</defs>
</svg>
