<svg width="24" height="25" viewBox="0 0 24 25" fill="none" xmlns="http://www.w3.org/2000/svg">
<g clip-path="url(#clip0_9588_2317)">
<path d="M21 4.08545H17.9C17.6679 2.95686 17.0538 1.9428 16.1613 1.21417C15.2687 0.485539 14.1522 0.0869037 13 0.0854492L11 0.0854492C9.8478 0.0869037 8.73132 0.485539 7.83875 1.21417C6.94618 1.9428 6.3321 2.95686 6.1 4.08545H3C2.73478 4.08545 2.48043 4.19081 2.29289 4.37834C2.10536 4.56588 2 4.82023 2 5.08545C2 5.35067 2.10536 5.60502 2.29289 5.79256C2.48043 5.98009 2.73478 6.08545 3 6.08545H4V19.0854C4.00159 20.411 4.52888 21.6819 5.46622 22.6192C6.40356 23.5566 7.67441 24.0839 9 24.0854H15C16.3256 24.0839 17.5964 23.5566 18.5338 22.6192C19.4711 21.6819 19.9984 20.411 20 19.0854V6.08545H21C21.2652 6.08545 21.5196 5.98009 21.7071 5.79256C21.8946 5.60502 22 5.35067 22 5.08545C22 4.82023 21.8946 4.56588 21.7071 4.37834C21.5196 4.19081 21.2652 4.08545 21 4.08545ZM11 2.08545H13C13.6203 2.08621 14.2251 2.27883 14.7316 2.63689C15.2381 2.99496 15.6214 3.50094 15.829 4.08545H8.171C8.37858 3.50094 8.7619 2.99496 9.26839 2.63689C9.77487 2.27883 10.3797 2.08621 11 2.08545ZM18 19.0854C18 19.8811 17.6839 20.6442 17.1213 21.2068C16.5587 21.7694 15.7956 22.0854 15 22.0854H9C8.20435 22.0854 7.44129 21.7694 6.87868 21.2068C6.31607 20.6442 6 19.8811 6 19.0854V6.08545H18V19.0854Z" fill="#B3BACC"/>
<path d="M10 18.0854C10.2652 18.0854 10.5196 17.9801 10.7071 17.7926C10.8946 17.605 11 17.3507 11 17.0854V11.0854C11 10.8202 10.8946 10.5659 10.7071 10.3783C10.5196 10.1908 10.2652 10.0854 10 10.0854C9.73478 10.0854 9.48043 10.1908 9.29289 10.3783C9.10536 10.5659 9 10.8202 9 11.0854V17.0854C9 17.3507 9.10536 17.605 9.29289 17.7926C9.48043 17.9801 9.73478 18.0854 10 18.0854Z" fill="#B3BACC"/>
<path d="M14 18.0854C14.2652 18.0854 14.5196 17.9801 14.7071 17.7926C14.8946 17.605 15 17.3507 15 17.0854V11.0854C15 10.8202 14.8946 10.5659 14.7071 10.3783C14.5196 10.1908 14.2652 10.0854 14 10.0854C13.7348 10.0854 13.4804 10.1908 13.2929 10.3783C13.1054 10.5659 13 10.8202 13 11.0854V17.0854C13 17.3507 13.1054 17.605 13.2929 17.7926C13.4804 17.9801 13.7348 18.0854 14 18.0854Z" fill="#B3BACC"/>
</g>
<defs>
<clipPath id="clip0_9588_2317">
<rect width="24" height="24" fill="white" transform="translate(0 0.0854492)"/>
</clipPath>
</defs>
</svg>
