<svg width="56" height="56" viewBox="0 0 56 56" fill="none" xmlns="http://www.w3.org/2000/svg">
<g clip-path="url(#clip0_9311_2350)">
<path d="M28.3555 56C43.6145 56 55.9844 43.6301 55.9844 28.3711C55.9844 13.1121 43.6145 0.742188 28.3555 0.742188C13.0964 0.742188 0.726562 13.1121 0.726562 28.3711C0.726562 43.6301 13.0964 56 28.3555 56Z" fill="#665CAC"/>
<path d="M30.484 13.4939H24.8165C22.1861 13.4939 19.6634 14.5911 17.8034 16.5443C15.9434 18.4974 14.8984 21.1463 14.8984 23.9085V28.3718C14.8976 30.3434 15.4298 32.2747 16.4331 33.9412C17.4364 35.6077 18.8695 36.9409 20.5659 37.7859V42.7588C20.5676 42.8558 20.5962 42.9502 20.6483 43.0304C20.7003 43.1106 20.7735 43.1731 20.8589 43.2102C20.9443 43.2473 21.0381 43.2575 21.1289 43.2394C21.2197 43.2213 21.3035 43.1758 21.37 43.1084L25.486 38.7864H30.484C33.1144 38.7864 35.6371 37.6892 37.4971 35.736C39.3571 33.7829 40.402 31.134 40.402 28.3718V23.9085C40.402 21.1463 39.3571 18.4974 37.4971 16.5443C35.6371 14.5911 33.1144 13.4939 30.484 13.4939ZM34.1962 33.0138L32.7793 34.5016C31.2703 36.0526 27.3314 34.2821 23.8601 30.5589C20.3888 26.8357 18.8657 22.6587 20.318 21.1077L21.7348 19.6199C22.0125 19.3581 22.3736 19.2152 22.7467 19.2194C23.1198 19.2235 23.4779 19.3744 23.7503 19.6422L25.8189 21.8739C25.9832 22.0519 26.1017 22.2709 26.1632 22.5102C26.2247 22.7496 26.2273 23.0014 26.1706 23.2421C26.1139 23.4827 25.9999 23.7043 25.8392 23.8859C25.6786 24.0676 25.4766 24.2033 25.2522 24.2804C24.9196 24.3876 24.6391 24.6251 24.4689 24.9437C24.2988 25.2623 24.252 25.6375 24.3383 25.9914C24.6925 27.6428 26.6903 29.7109 28.178 30.1163C28.5134 30.2002 28.8665 30.1528 29.171 29.983C29.4755 29.8132 29.7106 29.5326 29.8322 29.1938C29.9108 28.9576 30.046 28.7465 30.2247 28.581C30.4035 28.4154 30.6198 28.301 30.8529 28.2487C31.086 28.1964 31.3279 28.208 31.5555 28.2823C31.7831 28.3566 31.9886 28.4912 32.1523 28.6731L34.2174 30.9048C34.4654 31.1956 34.6008 31.5733 34.5969 31.9636C34.5929 32.3539 34.45 32.7286 34.1962 33.0138ZM28.9396 20.5609C28.7987 20.5602 28.6579 20.5689 28.5181 20.587C28.4564 20.594 28.3941 20.5883 28.3346 20.5701C28.275 20.5519 28.2195 20.5215 28.1712 20.4807C28.1228 20.44 28.0826 20.3896 28.0528 20.3325C28.0229 20.2755 28.0041 20.2128 27.9974 20.1481C27.9906 20.0833 27.9961 20.0179 28.0134 19.9554C28.0308 19.8928 28.0597 19.8345 28.0985 19.7838C28.1373 19.733 28.1853 19.6908 28.2396 19.6594C28.294 19.6281 28.3537 19.6084 28.4153 19.6013C28.5894 19.5803 28.7644 19.5703 28.9396 19.5715C30.1931 19.5705 31.3958 20.0922 32.2831 21.022C33.1705 21.9517 33.67 23.2133 33.6719 24.5296C33.6731 24.7135 33.6636 24.8974 33.6436 25.0801C33.6368 25.1448 33.618 25.2075 33.5882 25.2646C33.5584 25.3217 33.5182 25.372 33.4698 25.4128C33.4215 25.4535 33.3659 25.4839 33.3064 25.5021C33.2469 25.5203 33.1845 25.5261 33.1229 25.519C33.0613 25.5119 33.0016 25.4922 32.9472 25.4608C32.8928 25.4295 32.8449 25.3873 32.8061 25.3365C32.7672 25.2857 32.7383 25.2274 32.721 25.1649C32.7036 25.1024 32.6982 25.0369 32.7049 24.9722C32.7203 24.8252 32.7286 24.6775 32.7297 24.5296C32.7278 23.4757 32.3276 22.4657 31.6169 21.7216C30.9062 20.9774 29.9432 20.5599 28.9396 20.5609ZM31.7733 24.5296C31.7631 24.6539 31.7088 24.7696 31.6213 24.8539C31.5337 24.9382 31.4192 24.985 31.3004 24.985C31.1817 24.985 31.0672 24.9382 30.9796 24.8539C30.8921 24.7696 30.8378 24.6539 30.8276 24.5296C30.8276 24.0038 30.6287 23.4996 30.2746 23.1278C29.9205 22.756 29.4403 22.5471 28.9396 22.5471C28.8741 22.5531 28.808 22.5447 28.7458 22.5224C28.6835 22.5002 28.6263 22.4646 28.5778 22.4179C28.5293 22.3712 28.4906 22.3144 28.4641 22.2512C28.4376 22.188 28.424 22.1197 28.424 22.0506C28.424 21.9815 28.4376 21.9132 28.4641 21.8499C28.4906 21.7867 28.5293 21.7299 28.5778 21.6832C28.6263 21.6366 28.6835 21.601 28.7458 21.5787C28.808 21.5565 28.8741 21.5481 28.9396 21.554C29.6911 21.554 30.4119 21.8675 30.9433 22.4256C31.4748 22.9836 31.7733 23.7404 31.7733 24.5296ZM35.3757 26.1401C35.3652 26.2078 35.3416 26.2724 35.3063 26.33C35.2709 26.3876 35.2247 26.4369 35.1704 26.4749C35.1161 26.5129 35.0549 26.5387 34.9907 26.5507C34.9265 26.5628 34.8606 26.5608 34.7971 26.5449C34.7337 26.529 34.674 26.4996 34.6219 26.4584C34.5697 26.4172 34.5262 26.3652 34.4941 26.3056C34.462 26.2459 34.4419 26.18 34.4351 26.1119C34.4284 26.0437 34.435 25.9748 34.4547 25.9095C34.557 25.46 34.6082 24.9993 34.6071 24.5371C34.6071 22.9587 34.0099 21.445 32.9471 20.3289C31.8842 19.2129 30.4427 18.5859 28.9396 18.5859C28.7944 18.5859 28.6456 18.5859 28.5004 18.5859C28.4385 18.5908 28.3763 18.5828 28.3174 18.5625C28.2584 18.5421 28.2039 18.5098 28.1569 18.4673C28.0619 18.3815 28.0032 18.2596 27.9938 18.1284C27.9844 17.9972 28.0251 17.8674 28.1068 17.7677C28.1885 17.6679 28.3046 17.6064 28.4295 17.5965C28.5995 17.5816 28.7696 17.5742 28.9396 17.5742C30.6945 17.5771 32.3766 18.3112 33.6165 19.6153C34.8564 20.9194 35.5528 22.6868 35.5528 24.5296C35.553 25.0718 35.4936 25.6122 35.3757 26.1401Z" fill="white"/>
</g>
<defs>
<clipPath id="clip0_9311_2350">
<rect width="55.2578" height="55.2578" fill="white" transform="translate(0.726562 0.742188)"/>
</clipPath>
</defs>
</svg>
