<svg width="57" height="56" viewBox="0 0 57 56" fill="none" xmlns="http://www.w3.org/2000/svg">
<path d="M28.4258 56C43.6848 56 56.0547 43.6301 56.0547 28.3711C56.0547 13.1121 43.6848 0.742188 28.4258 0.742188C13.1668 0.742188 0.796875 13.1121 0.796875 28.3711C0.796875 43.6301 13.1668 56 28.4258 56Z" fill="#2AA81A"/>
<path d="M38.01 19.084C35.7511 16.6994 32.7499 15.2364 29.5482 14.959C26.3465 14.6817 23.1553 15.6085 20.5508 17.5719C17.9463 19.5353 16.1001 22.406 15.3455 25.6658C14.5909 28.9255 14.9777 32.3595 16.4359 35.3477L15.0072 42.5884C14.9919 42.6607 14.9913 42.7355 15.0055 42.8081C15.0196 42.8807 15.0482 42.9494 15.0894 43.0097C15.1483 43.101 15.2326 43.1714 15.3309 43.2113C15.4292 43.2513 15.5368 43.259 15.6394 43.2334L22.426 41.5518C25.2808 43.0342 28.5469 43.411 31.6429 42.6152C34.7389 41.8194 37.464 39.9027 39.333 37.2062C41.2021 34.5097 42.0939 31.2083 41.8496 27.8898C41.6054 24.5713 40.241 21.4509 37.9993 19.084H38.01ZM35.8883 36.7458C34.3261 38.3737 32.3143 39.4495 30.136 39.822C27.9576 40.1945 25.7222 39.845 23.744 38.8226L22.7939 38.3304L18.6255 39.3595V39.3036L19.5042 34.9152L19.0398 33.9607C18.0284 31.8901 17.6712 29.5384 18.0197 27.2428C18.3681 24.9472 19.4042 22.8259 20.9794 21.1832C22.9571 19.1208 25.6383 17.9624 28.4338 17.9624C31.2294 17.9624 33.9106 19.1208 35.8883 21.1832L35.9347 21.2503C37.8868 23.3192 38.9765 26.1095 38.9665 29.0133C38.9564 31.9171 37.8475 34.6992 35.8812 36.7533L35.8883 36.7458Z" fill="white"/>
<path d="M36.0611 33.8035C35.5456 34.6769 34.7273 35.7444 33.7072 36.0122C31.9047 36.478 29.1615 36.0122 25.7261 32.5924L25.6828 32.5497C22.6944 29.5453 21.9013 27.0416 22.078 25.058C22.1825 23.9284 23.0549 22.9114 23.7903 22.2438C23.9072 22.1376 24.0455 22.0624 24.1943 22.0241C24.343 21.9858 24.498 21.9855 24.6469 22.0232C24.7958 22.0609 24.9344 22.1356 25.0517 22.2413C25.1689 22.347 25.2616 22.4808 25.3223 22.6319L26.429 25.3258C26.5012 25.4992 26.5283 25.6905 26.5074 25.8793C26.4864 26.068 26.4182 26.247 26.31 26.3972L25.7477 27.1735C25.6308 27.3347 25.5612 27.5297 25.5477 27.7337C25.5342 27.9376 25.5775 28.1413 25.672 28.3186C26.2062 29.1664 26.8453 29.9317 27.5717 30.5933C28.3533 31.4033 29.2397 32.0871 30.2033 32.6235C30.3791 32.6998 30.5721 32.718 30.7576 32.6759C30.9432 32.6337 31.1128 32.533 31.2451 32.3867L31.8903 31.6802C32.0131 31.538 32.17 31.4352 32.3437 31.3831C32.5174 31.3311 32.7011 31.3318 32.8744 31.3852L35.506 32.1965C35.6551 32.2422 35.7921 32.325 35.906 32.4383C36.0198 32.5516 36.1073 32.6922 36.1614 32.8486C36.2154 33.0051 36.2345 33.1731 36.2171 33.339C36.1997 33.5048 36.1462 33.664 36.0611 33.8035Z" fill="white"/>
</svg>
